<?xml version="1.0" standalone="no"?>
<!DOCTYPE svg PUBLIC "-//W3C//DTD SVG 20010904//EN"
 "http://www.w3.org/TR/2001/REC-SVG-20010904/DTD/svg10.dtd">
<svg version="1.0" xmlns="http://www.w3.org/2000/svg"
 width="561.000000pt" height="388.000000pt" viewBox="0 0 561.000000 388.000000"
 preserveAspectRatio="xMidYMid meet">
<metadata>
Created by potrace 1.10, written by Peter Selinger 2001-2011
</metadata>
<g transform="translate(0.000000,388.000000) scale(0.100000,-0.100000)"
fill="#000000" stroke="none">
<path d="M1745 3731 c-8 -15 3 -31 21 -31 9 0 14 7 12 17 -4 20 -24 28 -33 14z"/>
<path d="M1900 3655 c0 -67 3 -85 14 -85 10 0 16 14 18 43 2 29 8 42 18 42 10
0 16 -13 18 -42 2 -29 8 -43 18 -43 10 0 14 12 14 43 0 55 -11 71 -44 65 -24
-5 -26 -2 -26 28 0 24 -5 34 -15 34 -12 0 -15 -16 -15 -85z"/>
<path d="M2257 3734 c-14 -15 -6 -34 14 -34 14 0 19 5 17 17 -3 18 -20 27 -31
17z"/>
<path d="M1620 3650 c0 -64 3 -80 15 -80 10 0 15 10 15 34 0 34 1 35 35 29 28
-4 35 -2 35 11 0 12 -9 16 -35 16 -28 0 -35 4 -35 20 0 16 7 20 35 20 24 0 35
5 35 15 0 11 -12 15 -50 15 l-50 0 0 -80z"/>
<path d="M2090 3650 l0 -80 44 0 c61 0 96 29 96 80 0 51 -35 80 -96 80 l-44 0
0 -80z m98 38 c7 -7 12 -24 12 -38 0 -34 -17 -50 -52 -50 -27 0 -28 2 -28 50
0 48 1 50 28 50 15 0 33 -5 40 -12z"/>
<path d="M1744 3625 c-1 -49 1 -55 18 -55 14 0 18 5 14 16 -3 9 -6 33 -6 55 0
25 -5 39 -12 39 -9 0 -13 -18 -14 -55z"/>
<path d="M1807 3674 c-15 -16 -6 -45 18 -56 14 -6 25 -15 25 -21 0 -5 -11 -6
-25 -3 -19 5 -25 2 -25 -9 0 -13 9 -15 38 -13 30 2 38 7 40 25 3 17 -3 26 -22
33 -29 11 -35 31 -8 27 9 -1 19 3 22 8 6 11 -52 20 -63 9z"/>
<path d="M2259 3678 c0 -2 -2 -27 -3 -55 -2 -39 1 -53 11 -53 9 0 13 16 13 55
0 30 -4 55 -10 55 -5 0 -10 -1 -11 -2z"/>
<path d="M2315 3670 c-7 -11 -3 -12 32 -14 26 -1 32 -19 7 -22 -34 -5 -45 -15
-42 -36 3 -20 10 -23 49 -25 l47 -2 -5 42 c-2 23 -6 48 -9 55 -4 14 -70 16
-79 2z m63 -62 c-5 -16 -48 -24 -48 -10 0 11 17 20 38 21 8 1 12 -5 10 -11z"/>
<path d="M2442 3668 c-17 -17 -15 -64 4 -83 12 -11 25 -14 46 -10 28 7 29 6
19 -14 -12 -22 -45 -28 -56 -11 -8 13 -25 3 -25 -16 0 -18 80 -20 98 -2 7 7
12 40 12 78 l0 66 -43 2 c-24 1 -49 -4 -55 -10z m67 -22 c16 -20 3 -46 -24
-46 -13 0 -26 7 -29 16 -7 19 10 44 29 44 7 0 18 -6 24 -14z"/>
<path d="M2570 3624 c0 -41 4 -54 15 -54 11 0 15 11 15 40 0 33 3 40 20 40 11
0 20 6 20 14 0 9 -12 14 -35 14 l-35 0 0 -54z"/>
<path d="M2667 3673 c-15 -15 -5 -22 23 -16 24 4 30 2 30 -11 0 -10 -4 -15 -9
-12 -5 4 -21 2 -36 -4 -20 -7 -26 -16 -23 -33 3 -19 10 -22 51 -24 l47 -2 -3
43 c-2 24 -7 48 -11 55 -8 12 -58 15 -69 4z m53 -63 c0 -12 -28 -25 -36 -17
-9 9 6 27 22 27 8 0 14 -5 14 -10z"/>
<path d="M2770 3624 c0 -40 4 -54 14 -54 10 0 16 14 18 43 2 29 8 42 18 42 10
0 16 -13 18 -42 2 -29 8 -43 17 -43 9 0 15 14 17 43 2 29 8 42 18 42 10 0 16
-13 18 -42 2 -29 8 -43 18 -43 18 0 20 83 2 98 -7 5 -46 10 -85 10 l-73 -1 0
-53z"/>
<path d="M2213 3090 c-13 -5 -23 -14 -23 -20 0 -5 -7 -10 -16 -10 -9 0 -12 -5
-8 -12 5 -7 2 -9 -9 -5 -22 8 -132 -104 -193 -198 -27 -41 -58 -76 -69 -79
-11 -3 -45 -6 -75 -6 -73 0 -439 -36 -565 -55 -321 -50 -664 -175 -745 -273
-53 -64 -41 -85 78 -133 75 -31 64 -40 -20 -18 -76 20 -95 16 -83 -20 10 -32
252 -208 333 -242 26 -11 56 -24 67 -29 11 -5 63 -23 115 -40 154 -50 260 -62
815 -91 121 -6 224 -15 229 -19 5 -5 15 -30 22 -57 7 -26 13 -39 13 -28 1 13
14 -3 37 -43 20 -35 43 -66 52 -69 10 -3 29 -17 45 -31 43 -40 32 -13 -21 50
-73 89 -101 128 -114 165 -16 44 -39 50 -263 57 -99 4 -209 9 -245 11 -36 3
-110 7 -164 10 -143 8 -310 35 -386 63 -8 3 -20 6 -27 8 -26 5 -86 27 -111 40
-15 8 -34 14 -42 14 -24 0 -210 122 -210 138 0 4 -20 18 -44 30 -43 23 -94 68
-85 76 6 6 138 -29 199 -54 30 -12 63 -31 73 -41 23 -25 59 -39 97 -39 23 0
35 9 60 45 29 43 30 46 16 74 -14 26 -14 32 0 60 17 35 49 57 59 41 8 -13 35
-13 35 1 0 6 -9 13 -21 16 -15 4 -17 8 -8 13 9 6 9 12 -3 24 -9 8 -22 38 -29
66 -14 56 -40 66 -45 18 -3 -28 10 -39 19 -15 8 22 18 -1 20 -45 2 -35 -4 -53
-26 -81 -15 -21 -35 -37 -43 -37 -20 0 -18 -12 6 -33 21 -18 28 -71 10 -82
-10 -6 -58 21 -76 44 -6 8 -16 11 -22 7 -6 -4 -33 10 -59 30 -26 20 -58 41
-70 47 -13 6 -23 14 -23 19 0 4 -11 8 -24 8 -14 0 -36 4 -50 10 -16 6 -28 6
-31 0 -3 -5 7 -12 22 -16 66 -14 91 -26 143 -69 30 -25 75 -53 100 -62 55 -20
84 -43 71 -56 -16 -16 -81 3 -113 34 -17 16 -39 29 -48 29 -10 0 -29 9 -43 20
-14 11 -31 20 -37 20 -8 0 -10 8 -7 21 4 15 2 19 -8 15 -12 -4 -120 36 -133
49 -9 8 23 73 40 84 17 10 22 9 34 -6 12 -17 13 -17 14 0 0 9 -4 17 -10 17
-23 0 -6 16 38 36 26 11 67 29 92 40 44 20 201 71 345 114 39 11 113 25 165
30 52 5 109 13 125 16 17 3 46 7 65 8 19 2 46 6 60 9 14 3 70 9 125 12 55 4
179 12 275 19 250 18 429 9 598 -29 60 -14 72 -20 72 -36 0 -11 5 -17 10 -14
6 4 8 11 5 16 -9 13 -9 13 169 -30 229 -55 219 -54 247 -25 30 32 97 67 115
60 7 -3 16 -1 19 4 14 23 -56 7 -109 -25 -32 -19 -67 -35 -77 -35 -10 0 -134
30 -276 66 -142 36 -268 66 -280 67 -34 3 -22 20 23 33 21 6 40 17 42 25 1 8
-13 32 -33 53 -34 39 -35 39 -55 21 -17 -15 -23 -16 -29 -6 -6 9 -11 10 -15 2
-4 -6 -2 -11 5 -11 7 0 5 -8 -6 -20 -11 -13 -25 -18 -37 -14 -10 3 -18 0 -18
-6 0 -6 5 -8 10 -5 6 3 10 1 10 -4 0 -6 9 -11 21 -11 11 0 17 5 14 10 -7 12
10 31 43 49 20 11 26 9 49 -13 29 -29 25 -56 -8 -56 -11 0 -35 -11 -51 -25
-17 -14 -33 -23 -37 -20 -3 4 13 23 37 43 48 42 50 48 22 48 -11 0 -20 -5 -20
-11 0 -12 -71 -85 -83 -85 -4 0 -4 12 -1 28 l7 27 -27 -24 c-27 -26 -48 -22
-26 4 24 29 1 28 -24 -1 -23 -28 -50 -28 -28 -1 7 8 9 17 5 20 -3 4 1 7 9 7 9
0 21 6 28 14 9 12 8 15 -10 13 -12 -1 -30 -15 -41 -34 -11 -18 -28 -33 -37
-33 -13 0 -12 4 4 23 39 44 47 57 35 57 -6 0 -17 -11 -23 -25 -6 -14 -16 -25
-21 -25 -6 0 -18 -7 -28 -16 -10 -9 -23 -13 -29 -9 -10 6 37 52 50 48 3 -1 6
8 6 19 0 18 -2 18 -21 -6 -11 -14 -26 -26 -33 -26 -6 0 -16 -9 -22 -20 -11
-20 -55 -29 -48 -9 2 6 7 10 11 9 15 -2 77 85 75 105 -4 29 29 64 54 57 14 -3
19 -1 14 6 -4 7 -1 12 6 12 7 0 37 16 65 35 29 19 57 35 63 35 24 0 6 -21 -49
-60 -33 -23 -62 -48 -65 -56 -3 -8 -13 -14 -21 -14 -15 0 -45 -22 -45 -33 0
-15 35 4 78 43 88 80 157 110 100 45 -14 -16 -28 -23 -39 -20 -10 3 -21 0 -25
-6 -5 -9 -2 -10 11 -5 15 5 16 4 5 -9 -7 -8 -21 -15 -31 -15 -10 0 -20 -3 -22
-7 -7 -12 7 -38 21 -41 8 -1 11 1 8 6 -7 12 4 24 62 66 43 32 56 36 63 25 14
-23 10 -39 -10 -39 -11 0 -23 -5 -26 -11 -12 -19 4 -22 30 -5 14 9 30 14 35
11 17 -10 12 1 -25 56 -19 30 -35 57 -35 62 0 12 -40 67 -48 66 -4 0 -17 -4
-29 -9z m45 -19 c-6 -16 -97 -80 -102 -72 -6 9 48 61 74 73 22 10 32 9 28 -1z
m-149 -89 c-43 -44 -103 -123 -143 -185 -9 -16 -20 -26 -24 -23 -9 10 87 146
147 208 30 32 57 55 60 53 3 -3 -15 -27 -40 -53z"/>
<path d="M2226 2898 c-6 -19 -4 -48 4 -48 4 0 15 10 26 22 18 20 18 21 1 15
-10 -4 -16 -3 -12 2 3 5 1 12 -5 16 -6 3 -12 0 -14 -7z"/>
<path d="M3875 2795 c-79 -30 -243 -116 -325 -169 -109 -71 -196 -92 -313 -76
-123 18 -131 24 -65 55 23 11 44 26 46 33 2 7 -10 4 -32 -9 -41 -24 -49 -11
-12 19 28 21 18 42 -18 42 -19 -1 -19 -2 4 -14 l25 -14 -28 -13 c-15 -7 -27
-16 -27 -20 0 -4 -8 -5 -19 -2 -12 3 -20 -2 -24 -16 -3 -15 -13 -21 -31 -21
-14 0 -26 4 -26 8 0 12 -50 9 -51 -3 0 -5 17 -14 38 -18 131 -27 164 -39 158
-58 -4 -13 -1 -19 9 -19 9 0 16 7 16 16 0 13 8 14 48 8 26 -3 53 -11 60 -16 8
-7 12 -7 12 1 0 6 17 11 39 11 22 0 43 5 46 10 4 6 11 8 16 4 14 -9 73 22 159
82 91 63 309 177 327 170 7 -3 15 -1 18 4 9 15 25 12 25 -4 0 -23 19 -29 36
-11 9 9 19 14 21 11 9 -9 -6 -23 -43 -41 -33 -16 -36 -16 -48 0 -10 14 -14 14
-23 3 -5 -7 -10 -20 -10 -29 0 -16 4 -16 41 -2 23 9 49 15 59 15 9 0 17 3 17
9 0 5 7 9 15 9 22 0 19 47 -4 60 -29 15 -69 11 -136 -15z m-765 -210 c-14 -17
-30 -20 -30 -5 0 6 7 10 15 10 8 0 15 5 15 12 0 6 3 8 6 5 4 -4 1 -13 -6 -22z"/>
<path d="M3998 2713 c-10 -2 -18 -8 -18 -13 0 -5 7 -7 15 -4 8 4 15 2 15 -4 0
-9 -32 -22 -57 -22 -7 0 -13 7 -13 16 0 11 -5 14 -16 10 -9 -3 -20 -6 -25 -6
-5 0 -9 -4 -9 -10 0 -5 9 -10 21 -10 11 0 17 -4 14 -10 -8 -13 31 -13 56 1 11
6 25 8 32 6 7 -3 0 -10 -15 -16 -24 -9 -27 -14 -18 -35 7 -20 6 -26 -8 -29 -9
-3 -1 -5 18 -6 l35 -1 2 70 c1 39 -1 69 -5 69 -4 -1 -15 -3 -24 -6z"/>
<path d="M2060 2700 c8 -5 25 -10 38 -10 12 0 22 -6 22 -13 0 -18 73 -48 82
-34 11 17 -1 27 -33 27 -22 0 -29 5 -29 19 0 15 -8 19 -47 19 -34 1 -44 -1
-33 -8z"/>
<path d="M2226 2702 c-3 -6 -1 -14 5 -17 15 -10 25 3 12 16 -7 7 -13 7 -17 1z"/>
<path d="M3788 2702 c-19 -4 -24 -17 -10 -26 11 -7 52 4 52 14 0 11 -22 17
-42 12z"/>
<path d="M3693 2661 c-29 -20 -56 -40 -60 -46 -4 -5 1 -3 11 5 17 13 19 13 14
0 -3 -8 -15 -15 -27 -14 -13 0 -38 -14 -57 -32 -19 -17 -46 -35 -60 -38 -14
-4 -22 -11 -19 -16 9 -14 26 -12 45 5 19 18 107 67 178 100 59 28 67 40 20 31
l-33 -6 30 25 c45 37 17 28 -42 -14z"/>
<path d="M1603 2683 c-21 -8 -15 -22 7 -16 11 3 20 9 20 14 0 10 -8 10 -27 2z"/>
<path d="M1831 2664 c-14 -10 -19 -20 -14 -25 14 -14 43 1 43 22 0 23 0 23
-29 3z"/>
<path d="M2300 2673 c0 -5 5 -15 10 -23 7 -12 12 -12 22 -2 10 10 10 15 -2 22
-18 12 -30 13 -30 3z"/>
<path d="M2390 2666 c0 -7 11 -16 25 -18 30 -6 33 7 6 22 -26 13 -31 13 -31
-4z"/>
<path d="M2050 2650 c22 -22 40 -26 40 -10 0 6 -12 15 -26 20 -35 14 -37 13
-14 -10z"/>
<path d="M2467 2662 c-17 -4 -17 -5 3 -19 14 -10 25 -12 31 -6 13 13 -11 31
-34 25z"/>
<path d="M1454 2645 c-7 -18 3 -35 22 -35 15 0 17 9 8 34 -8 20 -23 21 -30 1z"/>
<path d="M1666 2644 c-10 -26 -7 -32 14 -27 27 7 36 23 19 34 -20 12 -26 11
-33 -7z"/>
<path d="M1925 2650 c-3 -5 -1 -10 4 -10 6 0 11 -7 11 -15 0 -16 35 -21 44 -6
4 5 3 16 0 25 -7 18 -49 22 -59 6z"/>
<path d="M3060 2649 c0 -15 15 -17 33 -4 16 11 15 13 -8 13 -14 0 -25 -4 -25
-9z"/>
<path d="M3817 2653 c-4 -3 -7 -13 -7 -21 0 -11 8 -13 32 -8 39 8 47 15 28 26
-18 11 -44 13 -53 3z"/>
<path d="M1355 2640 c-4 -6 8 -10 29 -10 19 0 38 5 41 10 4 6 -8 10 -29 10
-19 0 -38 -4 -41 -10z"/>
<path d="M1287 2634 c-4 -4 -7 -11 -7 -16 0 -13 50 -6 53 7 2 12 -36 19 -46 9z"/>
<path d="M1544 2629 c-8 -13 13 -29 39 -29 10 0 17 8 17 20 0 15 -7 20 -24 20
-14 0 -28 -5 -32 -11z"/>
<path d="M2240 2636 c0 -2 6 -9 14 -15 10 -9 15 -8 20 4 4 10 -1 15 -14 15
-11 0 -20 -2 -20 -4z"/>
<path d="M2624 2631 c3 -5 15 -11 26 -14 17 -4 19 -3 9 9 -12 15 -44 20 -35 5z"/>
<path d="M3010 2625 c-7 -8 -8 -15 -2 -15 5 0 15 7 22 15 7 8 8 15 2 15 -5 0
-15 -7 -22 -15z"/>
<path d="M1200 2620 c-7 -4 -4 -12 7 -22 17 -15 20 -15 40 2 l23 18 -30 4
c-16 3 -34 2 -40 -2z"/>
<path d="M2522 2614 c2 -11 11 -20 22 -22 13 -3 17 1 14 14 -2 11 -11 20 -22
22 -13 3 -17 -1 -14 -14z"/>
<path d="M2323 2613 c-29 -11 -13 -33 24 -33 35 0 36 0 18 20 -19 21 -22 22
-42 13z"/>
<path d="M2420 2612 c0 -14 11 -21 26 -15 8 3 11 9 8 14 -7 11 -34 12 -34 1z"/>
<path d="M3733 2602 c-24 -25 -51 -34 -57 -19 -3 8 -11 4 -23 -10 -10 -12 -29
-25 -43 -28 -23 -6 -80 -48 -80 -59 0 -2 33 12 73 33 39 20 96 47 125 59 29
12 50 27 47 32 -9 15 -22 12 -42 -8z"/>
<path d="M3900 2612 c0 -15 11 -21 27 -15 12 5 12 7 1 14 -17 11 -28 11 -28 1z"/>
<path d="M1133 2603 c-7 -2 -13 -9 -13 -14 0 -6 4 -8 9 -4 6 3 15 -5 22 -17 6
-13 21 -34 33 -47 15 -17 17 -25 9 -28 -22 -8 -14 -26 8 -20 17 5 24 -2 40
-36 38 -85 21 -162 -61 -267 -15 -19 -29 -39 -30 -45 -10 -50 -88 -82 -168
-70 -31 5 -46 2 -57 -9 -20 -20 -19 -26 6 -26 11 0 17 5 14 10 -4 6 12 10 42
10 26 0 59 3 73 7 26 6 25 5 -39 -44 -3 -2 1 -9 7 -15 10 -10 25 1 67 47 30
33 55 53 55 45 0 -8 7 -2 15 14 8 15 15 32 15 37 0 4 17 33 39 64 27 39 42 73
50 118 13 70 11 126 -4 124 -5 -1 -10 9 -10 23 0 14 -12 37 -28 53 -15 15 -35
43 -43 62 -14 34 -24 39 -51 28z"/>
<path d="M1862 2599 c2 -6 8 -10 13 -10 5 0 11 4 13 10 2 6 -4 11 -13 11 -9 0
-15 -5 -13 -11z"/>
<path d="M2140 2595 c0 -8 4 -15 9 -15 5 0 11 -9 14 -20 6 -24 37 -27 37 -4 0
9 -9 18 -20 21 -11 3 -20 12 -20 19 0 8 -4 14 -10 14 -5 0 -10 -7 -10 -15z"/>
<path d="M2726 2600 c5 -4 24 -10 42 -14 24 -4 32 -2 29 7 -2 6 -21 13 -41 14
-21 0 -34 -2 -30 -7z"/>
<path d="M1340 2580 c0 -19 3 -21 12 -12 9 9 9 15 0 24 -9 9 -12 7 -12 -12z"/>
<path d="M1398 2593 c-12 -3 -18 -14 -18 -34 0 -31 1 -32 25 -23 14 6 14 8 -1
25 -16 18 -16 19 -1 19 10 0 17 5 17 10 0 6 -1 9 -2 9 -2 -1 -11 -3 -20 -6z"/>
<path d="M1486 2592 c-3 -5 1 -17 8 -27 7 -10 15 -14 19 -9 3 5 -1 17 -8 27
-7 10 -16 14 -19 9z"/>
<path d="M1800 2579 c0 -11 5 -17 10 -14 6 3 10 13 10 21 0 8 -4 14 -10 14 -5
0 -10 -9 -10 -21z"/>
<path d="M2086 2592 c-15 -14 -4 -32 19 -32 30 0 34 25 6 33 -11 3 -22 2 -25
-1z"/>
<path d="M2835 2589 c-10 -15 3 -25 16 -12 7 7 7 13 1 17 -6 3 -14 1 -17 -5z"/>
<path d="M3850 2589 c0 -6 -7 -9 -14 -6 -10 4 -13 1 -9 -9 6 -15 60 -18 103
-4 24 8 24 8 -7 9 -17 1 -35 6 -38 11 -8 14 -35 13 -35 -1z"/>
<path d="M998 2583 c-29 -5 -39 -23 -13 -23 11 0 15 -11 15 -40 0 -40 11 -67
41 -105 9 -11 19 -39 23 -63 7 -48 -8 -85 -55 -140 -16 -18 -29 -43 -29 -55 0
-12 -7 -35 -15 -51 -8 -15 -15 -30 -15 -32 0 -2 23 -4 51 -4 31 0 48 4 44 10
-3 6 -18 8 -32 5 -14 -2 -30 -2 -36 2 -16 10 16 23 58 24 22 0 51 5 65 9 19 7
11 8 -31 8 -30 -1 -60 2 -66 5 -16 10 -4 45 23 66 13 10 24 24 24 30 0 13 20
50 38 69 14 15 16 42 3 42 -5 0 -11 10 -14 23 -2 12 -8 31 -12 41 -6 14 -5 17
3 12 7 -4 12 -3 12 2 0 5 -9 12 -20 15 -11 3 -20 11 -20 17 0 7 8 10 20 7 13
-3 20 0 20 9 0 8 -10 14 -24 14 -25 0 -34 17 -32 65 1 28 26 50 26 22 0 -17
47 -29 56 -15 15 24 -48 41 -108 31z"/>
<path d="M2590 2576 c0 -19 39 -31 53 -17 9 9 8 14 -3 21 -22 14 -50 12 -50
-4z"/>
<path d="M1273 2570 c-31 -13 -30 -40 2 -40 20 0 25 5 25 25 0 14 -1 25 -2 24
-2 0 -13 -4 -25 -9z"/>
<path d="M1600 2570 c0 -13 48 -36 56 -27 4 3 4 13 1 22 -7 17 -57 21 -57 5z"/>
<path d="M1717 2574 c-4 -4 -4 -10 -1 -15 6 -10 34 0 34 12 0 10 -24 12 -33 3z"/>
<path d="M1917 2573 c-12 -11 -8 -23 8 -23 8 0 15 7 15 15 0 16 -12 20 -23 8z"/>
<path d="M1985 2569 c-8 -13 -7 -15 24 -24 20 -6 23 -4 18 10 -4 9 -7 19 -7
21 0 9 -29 3 -35 -7z"/>
<path d="M2390 2565 c0 -8 5 -15 10 -15 6 0 10 7 10 15 0 8 -4 15 -10 15 -5 0
-10 -7 -10 -15z"/>
<path d="M2697 2573 c-12 -11 -8 -23 8 -23 8 0 15 7 15 15 0 16 -12 20 -23 8z"/>
<path d="M2882 2568 c3 -7 13 -15 22 -16 12 -3 17 1 14 10 -3 7 -13 15 -22 16
-12 3 -17 -1 -14 -10z"/>
<path d="M892 2550 c-13 -11 -21 -24 -17 -30 10 -17 25 -11 18 7 -5 12 -2 15
10 10 16 -6 41 15 30 26 -10 10 -16 8 -41 -13z"/>
<path d="M2950 2555 c0 -8 6 -15 14 -15 7 0 16 -9 19 -20 5 -19 37 -29 37 -12
0 10 -53 62 -63 62 -4 0 -7 -7 -7 -15z"/>
<path d="M1435 2550 c-3 -5 3 -10 14 -10 12 0 21 5 21 10 0 6 -6 10 -14 10 -8
0 -18 -4 -21 -10z"/>
<path d="M1837 2553 c-16 -15 -6 -33 18 -33 28 0 34 24 9 34 -19 7 -19 7 -27
-1z"/>
<path d="M3764 2550 c-23 -9 -41 -30 -26 -30 22 0 71 23 66 31 -6 11 -12 11
-40 -1z"/>
<path d="M3940 2551 c-17 -5 -21 -9 -12 -15 6 -4 16 -5 21 -2 5 4 11 2 13 -3
5 -14 58 0 58 15 0 15 -36 17 -80 5z"/>
<path d="M1532 2538 c5 -15 28 -18 29 -3 0 6 -7 12 -17 13 -10 3 -15 -1 -12
-10z"/>
<path d="M2250 2535 c0 -9 5 -15 11 -13 6 2 11 8 11 13 0 5 -5 11 -11 13 -6 2
-11 -4 -11 -13z"/>
<path d="M2320 2540 c0 -5 9 -10 21 -10 11 0 17 5 14 10 -3 6 -13 10 -21 10
-8 0 -14 -4 -14 -10z"/>
<path d="M2458 2527 c11 -11 25 -16 31 -13 20 12 12 24 -20 28 -30 5 -30 5
-11 -15z"/>
<path d="M3050 2540 c0 -5 7 -10 15 -10 8 0 15 5 15 10 0 6 -7 10 -15 10 -8 0
-15 -4 -15 -10z"/>
<path d="M815 2529 c-4 -5 -4 -22 0 -37 4 -18 9 -22 14 -13 11 18 23 -2 15
-26 -5 -15 -4 -15 5 -3 9 13 11 13 11 -2 0 -10 -4 -18 -10 -18 -5 0 -10 -8
-10 -18 0 -28 -29 -62 -54 -62 -29 0 -66 40 -66 72 0 25 27 58 47 58 6 0 16 7
23 15 10 12 9 15 -6 15 -11 0 -28 -7 -38 -15 -11 -8 -28 -15 -38 -15 -19 0
-25 -26 -8 -32 6 -2 6 -18 0 -42 -10 -44 -6 -58 14 -50 7 3 19 -2 26 -11 13
-16 61 -21 74 -7 4 4 18 7 29 7 16 0 21 6 20 20 -1 11 2 34 6 51 6 21 4 36 -5
49 -8 10 -12 26 -9 35 6 18 -31 45 -40 29z"/>
<path d="M2532 2529 c2 -6 8 -10 13 -10 5 0 11 4 13 10 2 6 -4 11 -13 11 -9 0
-15 -5 -13 -11z"/>
<path d="M2770 2530 c0 -5 9 -10 20 -10 11 0 20 5 20 10 0 6 -9 10 -20 10 -11
0 -20 -4 -20 -10z"/>
<path d="M3858 2533 c-10 -3 -18 -9 -18 -14 0 -5 -13 -9 -30 -9 -16 0 -30 -5
-30 -10 0 -6 -12 -15 -26 -20 -14 -6 -23 -14 -19 -20 6 -9 31 -4 50 11 6 4 59
9 118 11 66 2 107 7 107 14 0 11 -75 12 -86 1 -9 -9 -64 -9 -64 -1 0 4 7 12
17 19 18 13 7 24 -19 18z"/>
<path d="M1660 2515 c-17 -20 -11 -25 18 -14 13 5 20 13 17 19 -9 14 -21 12
-35 -5z"/>
<path d="M1730 2520 c0 -5 9 -10 20 -10 11 0 20 5 20 10 0 6 -9 10 -20 10 -11
0 -20 -4 -20 -10z"/>
<path d="M1953 2523 c-7 -3 -13 -9 -13 -14 0 -12 37 -12 44 0 7 11 -14 20 -31
14z"/>
<path d="M2860 2525 c0 -2 9 -9 20 -15 16 -9 20 -8 20 5 0 8 -9 15 -20 15 -11
0 -20 -2 -20 -5z"/>
<path d="M3685 2519 c-10 -14 -1 -21 19 -13 9 3 13 10 10 15 -7 12 -21 11 -29
-2z"/>
<path d="M1113 2513 c-20 -8 -15 -23 7 -23 11 0 20 7 20 15 0 15 -6 17 -27 8z"/>
<path d="M2390 2506 c0 -10 9 -16 21 -16 24 0 21 23 -4 28 -10 2 -17 -3 -17
-12z"/>
<path d="M2657 2513 c-11 -10 13 -33 34 -33 23 0 25 25 3 34 -20 8 -29 8 -37
-1z"/>
<path d="M1370 2491 c0 -22 15 -35 29 -27 13 9 1 46 -15 46 -8 0 -14 -9 -14
-19z"/>
<path d="M1460 2497 c0 -16 34 -29 56 -20 24 9 10 28 -24 31 -23 2 -32 -1 -32
-11z"/>
<path d="M1590 2496 c0 -9 7 -16 16 -16 17 0 14 22 -4 28 -7 2 -12 -3 -12 -12z"/>
<path d="M3573 2487 c-76 -40 -49 -51 37 -15 43 18 49 23 34 29 -26 10 -24 11
-71 -14z"/>
<path d="M2170 2490 c0 -5 9 -10 20 -10 11 0 20 5 20 10 0 6 -9 10 -20 10 -11
0 -20 -4 -20 -10z"/>
<path d="M2560 2491 c0 -10 30 -24 37 -17 3 3 2 9 -2 15 -8 13 -35 15 -35 2z"/>
<path d="M2797 2494 c-14 -14 -7 -25 13 -22 12 2 21 8 21 13 0 12 -24 18 -34
9z"/>
<path d="M2917 2494 c-11 -11 3 -24 24 -24 12 0 19 5 17 13 -5 14 -31 21 -41
11z"/>
<path d="M3096 2478 c9 -32 10 -32 34 -15 22 15 22 15 2 26 -33 17 -44 14 -36
-11z"/>
<path d="M3222 2489 c5 -17 48 -25 48 -10 0 6 -4 11 -9 11 -5 0 -17 3 -27 7
-12 4 -15 2 -12 -8z"/>
<path d="M890 2469 c0 -24 23 -21 28 4 2 10 -3 17 -12 17 -10 0 -16 -9 -16
-21z"/>
<path d="M1865 2481 c-6 -11 29 -34 38 -25 3 3 3 12 0 20 -6 16 -29 19 -38 5z"/>
<path d="M3367 2484 c-11 -11 3 -24 24 -24 12 0 19 5 17 13 -5 14 -31 21 -41
11z"/>
<path d="M3677 2483 c-9 -2 -14 -9 -11 -15 4 -6 -1 -17 -11 -25 -23 -16 -2
-18 28 -2 26 14 38 30 31 41 -5 8 -8 8 -37 1z"/>
<path d="M1294 2465 c-6 -16 9 -34 29 -35 13 0 8 27 -8 40 -12 10 -16 9 -21
-5z"/>
<path d="M3300 2470 c0 -5 9 -10 21 -10 11 0 17 5 14 10 -3 6 -13 10 -21 10
-8 0 -14 -4 -14 -10z"/>
<path d="M1123 2463 c-18 -7 -16 -23 2 -23 8 0 15 7 15 15 0 8 -1 15 -2 14 -2
0 -9 -3 -15 -6z"/>
<path d="M3983 2463 c-7 -3 -13 -11 -13 -18 0 -13 -30 -25 -67 -25 -28 0 -29
8 -5 27 15 12 14 13 -13 7 -16 -4 -32 -10 -35 -14 -3 -3 -13 -9 -22 -13 -39
-14 -14 -22 61 -19 l79 4 -6 -27 c-4 -25 -8 -27 -38 -22 -19 3 -34 2 -34 -4 0
-15 -28 -10 -38 7 -8 14 -10 14 -21 0 -16 -19 -9 -22 65 -29 61 -7 69 -2 80
43 10 44 9 42 19 63 9 21 5 26 -12 20z"/>
<path d="M784 2442 c-7 -25 -24 -30 -24 -6 0 8 -4 12 -10 9 -16 -10 -12 -55 4
-55 8 0 21 -2 28 -5 9 -4 20 5 28 20 12 22 12 28 -3 43 -17 16 -18 16 -23 -6z"/>
<path d="M2732 2443 c5 -25 28 -28 28 -4 0 12 -6 21 -16 21 -9 0 -14 -7 -12
-17z"/>
<path d="M2850 2450 c0 -5 7 -10 15 -10 8 0 15 5 15 10 0 6 -7 10 -15 10 -8 0
-15 -4 -15 -10z"/>
<path d="M3450 2450 c0 -5 7 -10 15 -10 8 0 15 5 15 10 0 6 -7 10 -15 10 -8 0
-15 -4 -15 -10z"/>
<path d="M936 2442 c-3 -6 -1 -14 5 -17 15 -10 25 3 12 16 -7 7 -13 7 -17 1z"/>
<path d="M1170 2434 c0 -17 22 -14 28 4 2 7 -3 12 -12 12 -9 0 -16 -7 -16 -16z"/>
<path d="M2985 2441 c-3 -5 -1 -12 5 -16 12 -7 30 2 30 16 0 12 -27 12 -35 0z"/>
<path d="M642 2430 c5 -16 48 -24 48 -10 0 6 -4 10 -9 10 -5 0 -17 3 -27 7
-11 4 -15 2 -12 -7z"/>
<path d="M3240 2430 c0 -5 7 -10 15 -10 8 0 15 5 15 10 0 6 -7 10 -15 10 -8 0
-15 -4 -15 -10z"/>
<path d="M3568 2427 c-21 -6 -38 -16 -38 -23 0 -20 11 -44 21 -44 6 0 5 8 -1
19 -14 28 -14 28 29 35 22 3 43 11 46 16 7 12 -7 11 -57 -3z"/>
<path d="M2300 2423 c8 -3 21 -10 28 -16 8 -7 12 -5 12 7 0 11 -8 16 -27 15
-16 0 -22 -3 -13 -6z"/>
<path d="M2802 2413 c2 -10 14 -19 26 -21 21 -3 22 -1 12 17 -13 26 -43 28
-38 4z"/>
<path d="M2902 2418 c3 -7 13 -15 22 -16 12 -3 17 1 14 10 -3 7 -13 15 -22 16
-12 3 -17 -1 -14 -10z"/>
<path d="M3707 2423 c-18 -17 -6 -33 21 -27 35 9 39 13 22 24 -18 11 -34 13
-43 3z"/>
<path d="M2125 2409 c-4 -6 -5 -13 -2 -16 7 -7 27 6 27 18 0 12 -17 12 -25 -2z"/>
<path d="M3350 2410 c0 -5 7 -10 15 -10 8 0 15 5 15 10 0 6 -7 10 -15 10 -8 0
-15 -4 -15 -10z"/>
<path d="M3640 2411 c-8 -6 -17 -8 -21 -5 -4 2 -13 -4 -20 -13 -13 -15 -11
-16 20 -10 18 4 40 7 47 7 8 0 11 6 8 15 -7 17 -13 18 -34 6z"/>
<path d="M606 2403 c-12 -12 -5 -23 14 -23 11 0 20 4 20 9 0 11 -26 22 -34 14z"/>
<path d="M1156 2394 c-12 -31 3 -34 22 -4 10 16 10 20 -2 20 -8 0 -17 -7 -20
-16z"/>
<path d="M1505 2400 c-7 -12 2 -30 16 -30 12 0 12 27 0 35 -5 3 -12 1 -16 -5z"/>
<path d="M1756 2403 c-11 -11 -6 -23 8 -23 8 0 17 4 20 9 7 10 -19 23 -28 14z"/>
<path d="M3050 2395 c0 -8 9 -15 20 -15 13 0 18 5 14 15 -4 8 -12 15 -20 15
-8 0 -14 -7 -14 -15z"/>
<path d="M3135 2401 c-6 -11 9 -23 19 -14 9 9 7 23 -3 23 -6 0 -12 -4 -16 -9z"/>
<path d="M3282 2401 c4 -13 18 -16 19 -4 0 4 -5 9 -11 12 -7 2 -11 -2 -8 -8z"/>
<path d="M1107 2393 c-12 -11 -8 -23 8 -23 8 0 15 7 15 15 0 16 -12 20 -23 8z"/>
<path d="M1895 2389 c-4 -6 -4 -13 -1 -16 8 -8 36 5 36 17 0 13 -27 13 -35 -1z"/>
<path d="M2190 2380 c0 -11 7 -20 15 -20 8 0 15 9 15 20 0 11 -7 20 -15 20 -8
0 -15 -9 -15 -20z"/>
<path d="M2480 2375 c0 -8 7 -15 15 -15 8 0 15 7 15 15 0 8 -7 15 -15 15 -8 0
-15 -7 -15 -15z"/>
<path d="M3775 2382 c-22 -5 -45 -21 -45 -32 0 -11 53 1 67 16 16 15 6 22 -22
16z"/>
<path d="M1190 2370 c0 -5 7 -10 15 -10 8 0 15 5 15 10 0 6 -7 10 -15 10 -8 0
-15 -4 -15 -10z"/>
<path d="M1985 2370 c-7 -12 2 -30 16 -30 12 0 12 27 0 35 -5 3 -12 1 -16 -5z"/>
<path d="M2575 2371 c-6 -11 9 -23 19 -14 9 9 7 23 -3 23 -6 0 -12 -4 -16 -9z"/>
<path d="M3412 2364 c1 -9 9 -19 16 -22 9 -3 13 2 10 14 -1 9 -9 19 -16 22 -9
3 -13 -2 -10 -14z"/>
<path d="M1820 2355 c0 -16 16 -20 24 -6 3 5 -1 11 -9 15 -9 3 -15 0 -15 -9z"/>
<path d="M2131 2356 c-8 -10 -9 -16 -1 -21 5 -3 13 1 16 10 9 22 -1 29 -15 11z"/>
<path d="M3310 2350 c0 -24 35 -28 44 -4 9 23 8 24 -19 24 -18 0 -25 -5 -25
-20z"/>
<path d="M3647 2363 c-25 -24 18 -32 49 -8 18 14 17 14 -12 15 -17 0 -34 -3
-37 -7z"/>
<path d="M1376 2353 c-11 -11 -6 -23 9 -23 8 0 15 4 15 9 0 13 -16 22 -24 14z"/>
<path d="M1425 2351 c-6 -11 9 -23 19 -14 9 9 7 23 -3 23 -6 0 -12 -4 -16 -9z"/>
<path d="M1560 2345 c0 -8 2 -15 4 -15 2 0 11 -3 20 -6 10 -4 16 -1 16 9 0 8
-7 18 -16 21 -22 9 -24 8 -24 -9z"/>
<path d="M2297 2353 c-14 -13 -6 -33 13 -33 11 0 20 4 20 9 0 13 -26 32 -33
24z"/>
<path d="M2735 2351 c-3 -5 -1 -12 5 -16 12 -7 30 2 30 16 0 12 -27 12 -35 0z"/>
<path d="M3156 2353 c-11 -11 -6 -23 9 -23 8 0 15 4 15 9 0 13 -16 22 -24 14z"/>
<path d="M3482 2348 c6 -18 28 -21 28 -4 0 9 -7 16 -16 16 -9 0 -14 -5 -12
-12z"/>
<path d="M3565 2340 c-21 -23 -19 -24 24 -9 17 6 31 15 31 20 0 17 -37 9 -55
-11z"/>
<path d="M1494 2327 c-3 -9 1 -23 9 -31 13 -14 16 -14 21 1 4 9 0 23 -8 32
-14 13 -16 13 -22 -2z"/>
<path d="M1747 2326 c-11 -29 -8 -36 18 -36 16 0 25 6 25 15 0 8 -6 15 -14 15
-8 0 -16 5 -18 12 -3 7 -7 5 -11 -6z"/>
<path d="M1887 2333 c-13 -12 -7 -33 8 -33 8 0 15 9 15 20 0 20 -11 26 -23 13z"/>
<path d="M2410 2325 c0 -8 7 -15 15 -15 8 0 15 7 15 15 0 8 -7 15 -15 15 -8 0
-15 -7 -15 -15z"/>
<path d="M3255 2330 c-7 -12 2 -30 16 -30 12 0 12 27 0 35 -5 3 -12 1 -16 -5z"/>
<path d="M814 2315 c3 -8 1 -15 -4 -15 -6 0 -10 -4 -10 -10 0 -5 7 -10 15 -10
8 0 15 4 15 9 0 5 3 16 6 25 4 11 1 16 -11 16 -11 0 -15 -5 -11 -15z"/>
<path d="M1135 2321 c-6 -11 9 -23 19 -14 9 9 7 23 -3 23 -6 0 -12 -4 -16 -9z"/>
<path d="M1210 2316 c0 -9 7 -16 16 -16 17 0 14 22 -4 28 -7 2 -12 -3 -12 -12z"/>
<path d="M1285 2319 c-7 -10 10 -28 28 -29 12 0 8 17 -7 29 -11 9 -16 9 -21 0z"/>
<path d="M2610 2316 c0 -9 7 -16 16 -16 17 0 14 22 -4 28 -7 2 -12 -3 -12 -12z"/>
<path d="M2852 2323 c-10 -4 -10 -8 -1 -19 16 -19 41 -18 37 3 -3 18 -16 24
-36 16z"/>
<path d="M3370 2314 c0 -8 7 -15 15 -15 8 -1 20 -2 25 -3 21 -2 8 19 -15 26
-18 4 -25 2 -25 -8z"/>
<path d="M3808 2320 c-4 -13 -34 -15 -67 -4 -17 5 -22 4 -17 -4 4 -7 16 -12
27 -12 10 0 19 -7 19 -15 0 -9 9 -15 24 -15 17 0 25 7 28 25 5 25 -7 45 -14
25z"/>
<path d="M2030 2310 c0 -5 7 -10 16 -10 14 0 14 -3 3 -16 -10 -13 -10 -17 2
-25 37 -23 53 15 18 42 -27 21 -39 24 -39 9z"/>
<path d="M2230 2310 c0 -5 7 -10 15 -10 8 0 15 5 15 10 0 6 -7 10 -15 10 -8 0
-15 -4 -15 -10z"/>
<path d="M3635 2310 c-10 -17 5 -30 34 -30 20 0 30 6 34 20 4 17 0 20 -28 20
-19 0 -37 -4 -40 -10z"/>
<path d="M1665 2299 c-4 -6 1 -16 11 -24 16 -11 20 -11 28 2 13 23 -25 45 -39
22z"/>
<path d="M2340 2304 c0 -10 31 -36 37 -31 10 10 -6 37 -22 37 -8 0 -15 -3 -15
-6z"/>
<path d="M1357 2293 c-4 -3 -7 -12 -7 -20 0 -17 26 -17 33 1 8 21 -11 35 -26
19z"/>
<path d="M2710 2284 c0 -11 5 -14 16 -10 9 3 20 6 25 6 6 0 7 5 4 10 -10 16
-45 12 -45 -6z"/>
<path d="M3100 2286 c0 -19 39 -31 53 -17 9 9 8 14 -3 21 -22 14 -50 12 -50
-4z"/>
<path d="M3200 2280 c0 -11 7 -20 15 -20 8 0 15 6 15 14 0 8 -7 16 -15 20 -10
4 -15 -1 -15 -14z"/>
<path d="M3315 2291 c-6 -11 9 -23 19 -14 9 9 7 23 -3 23 -6 0 -12 -4 -16 -9z"/>
<path d="M3855 2278 c-14 -17 -12 -18 30 -18 37 0 45 3 45 19 0 24 -54 23 -75
-1z"/>
<path d="M972 2281 c2 -7 7 -12 11 -12 12 1 9 15 -3 20 -7 2 -11 -2 -8 -8z"/>
<path d="M1951 2281 c-7 -5 -11 -14 -7 -20 5 -7 12 -7 26 1 10 7 16 16 14 20
-7 10 -15 10 -33 -1z"/>
<path d="M2522 2278 c3 -7 15 -15 27 -16 16 -3 22 1 19 10 -3 7 -15 15 -27 16
-16 3 -22 -1 -19 -10z"/>
<path d="M2965 2281 c-7 -12 12 -24 25 -16 11 7 4 25 -10 25 -5 0 -11 -4 -15
-9z"/>
<path d="M3956 2282 c-4 -7 -4 -21 -1 -32 11 -34 -4 -60 -32 -60 -40 0 -21
-10 21 -12 26 -1 35 -5 32 -15 -3 -7 -1 -13 4 -13 12 0 12 10 -4 84 -7 35 -16
55 -20 48z"/>
<path d="M1433 2268 c5 -18 -83 -62 -96 -49 -7 7 -17 1 -29 -20 -11 -17 -32
-36 -48 -42 -28 -11 -44 -33 -17 -24 6 2 17 -9 24 -25 11 -25 14 -27 37 -17
30 14 70 4 46 -11 -12 -8 -11 -10 5 -10 14 0 21 7 22 20 1 13 -4 20 -17 20
-10 0 -22 5 -25 10 -3 6 -16 8 -28 4 -18 -4 -23 -1 -24 15 -1 15 16 28 75 58
69 34 87 38 166 41 48 2 86 0 84 -4 -20 -42 -59 -126 -72 -154 -29 -65 -76
-120 -103 -120 -6 0 -14 -4 -18 -9 -11 -18 60 9 77 29 9 11 23 20 32 20 10 0
16 9 16 24 0 13 10 30 23 39 17 12 19 18 10 28 -20 20 3 51 32 43 15 -4 25 -2
25 5 0 6 -7 11 -16 11 -12 0 -15 5 -9 23 4 12 8 36 9 52 l1 30 -78 0 c-55 0
-77 4 -77 13 0 6 -7 12 -16 12 -9 0 -14 -6 -11 -12z"/>
<path d="M2150 2270 c0 -5 -7 -10 -15 -10 -8 0 -15 -4 -15 -10 0 -14 67 -13
76 1 7 12 -12 29 -33 29 -7 0 -13 -4 -13 -10z"/>
<path d="M3366 2271 c-7 -10 22 -37 30 -28 9 8 -3 37 -15 37 -5 0 -12 -4 -15
-9z"/>
<path d="M3561 2266 c-9 -11 -7 -15 10 -19 24 -6 71 12 63 24 -8 14 -60 10
-73 -5z"/>
<path d="M870 2255 c0 -8 5 -15 10 -15 6 0 10 7 10 15 0 8 -4 15 -10 15 -5 0
-10 -7 -10 -15z"/>
<path d="M1804 2259 c-7 -12 15 -31 31 -26 6 2 11 11 13 20 4 19 -32 24 -44 6z"/>
<path d="M1880 2260 c0 -5 10 -10 23 -10 18 0 19 2 7 10 -19 13 -30 13 -30 0z"/>
<path d="M3440 2254 c0 -9 5 -14 12 -12 18 6 21 28 4 28 -9 0 -16 -7 -16 -16z"/>
<path d="M2237 2253 c-14 -13 -6 -33 13 -33 11 0 20 4 20 9 0 13 -26 32 -33
24z"/>
<path d="M2430 2239 c0 -24 23 -21 28 4 2 10 -3 17 -12 17 -10 0 -16 -9 -16
-21z"/>
<path d="M3035 2249 c-4 -6 -1 -15 6 -20 21 -13 31 -11 27 8 -4 20 -24 28 -33
12z"/>
<path d="M3270 2245 c0 -8 9 -15 20 -15 13 0 18 5 14 15 -4 8 -12 15 -20 15
-8 0 -14 -7 -14 -15z"/>
<path d="M3722 2239 c16 -24 51 -37 126 -45 33 -4 42 -1 42 11 0 20 -43 30
-69 15 -15 -7 -27 -8 -39 -1 -13 8 -13 10 -2 11 24 0 -2 17 -40 25 -34 7 -34
7 -18 -16z"/>
<path d="M2800 2235 c0 -8 9 -15 20 -15 13 0 18 5 14 15 -4 8 -12 15 -20 15
-8 0 -14 -7 -14 -15z"/>
<path d="M1640 2225 c0 -9 5 -15 11 -13 6 2 11 8 11 13 0 5 -5 11 -11 13 -6 2
-11 -4 -11 -13z"/>
<path d="M1720 2225 c0 -19 24 -29 46 -21 13 5 14 9 4 21 -16 20 -50 19 -50 0z"/>
<path d="M2360 2231 c0 -5 9 -11 20 -14 13 -3 20 0 20 9 0 8 -9 14 -20 14 -11
0 -20 -4 -20 -9z"/>
<path d="M2700 2232 c0 -17 38 -44 45 -32 4 6 -1 18 -11 25 -22 16 -34 19 -34
7z"/>
<path d="M2900 2231 c0 -11 26 -22 34 -14 12 12 5 23 -14 23 -11 0 -20 -4 -20
-9z"/>
<path d="M3110 2230 c0 -5 9 -10 20 -10 11 0 20 5 20 10 0 6 -9 10 -20 10 -11
0 -20 -4 -20 -10z"/>
<path d="M3511 2227 c-15 -15 -14 -24 5 -31 8 -3 21 0 29 7 11 11 10 15 -5 25
-13 8 -20 8 -29 -1z"/>
<path d="M3654 2231 c5 -8 56 -3 56 5 0 2 -14 4 -31 4 -16 0 -28 -4 -25 -9z"/>
<path d="M3236 2222 c-9 -16 11 -35 28 -25 14 8 13 10 -4 21 -10 6 -21 8 -24
4z"/>
<path d="M1245 2210 c-8 -13 4 -32 16 -25 12 8 12 35 0 35 -6 0 -13 -4 -16
-10z"/>
<path d="M1495 2210 c-22 -4 -30 -8 -17 -9 26 -1 29 -18 5 -24 -10 -3 5 -5 32
-4 28 0 38 2 23 4 -39 6 -35 19 10 31 44 12 10 13 -53 2z"/>
<path d="M1961 2209 c-18 -7 -21 -13 -13 -21 14 -14 42 -3 42 17 0 8 -1 15 -2
14 -2 0 -14 -5 -27 -10z"/>
<path d="M2535 2210 c-9 -14 -6 -17 25 -22 17 -2 25 2 25 12 0 18 -40 26 -50
10z"/>
<path d="M3606 2213 c-3 -4 -6 -11 -6 -16 0 -6 3 -8 6 -4 4 3 19 0 34 -8 19
-10 30 -11 32 -4 2 6 14 1 27 -10 29 -26 53 -27 49 -3 -4 25 -56 46 -75 30
-10 -8 -17 -8 -21 -2 -9 14 -38 24 -46 17z"/>
<path d="M2470 2200 c-12 -8 -12 -10 3 -16 21 -8 35 2 21 16 -5 5 -15 6 -24 0z"/>
<path d="M3330 2200 c0 -5 9 -10 21 -10 11 0 17 5 14 10 -3 6 -13 10 -21 10
-8 0 -14 -4 -14 -10z"/>
<path d="M3402 2198 c3 -7 13 -15 22 -16 12 -3 17 1 14 10 -3 7 -13 15 -22 16
-12 3 -17 -1 -14 -10z"/>
<path d="M1858 2183 c44 -15 59 -13 47 6 -3 6 -25 11 -48 10 l-42 -1 43 -15z"/>
<path d="M2042 2183 c4 -22 43 -25 43 -3 0 8 -11 16 -23 18 -19 3 -23 0 -20
-15z"/>
<path d="M3088 2186 c-10 -7 -15 -15 -12 -18 10 -10 44 4 44 18 0 17 -10 17
-32 0z"/>
<path d="M1370 2169 c0 -13 8 -23 21 -26 11 -3 18 -11 15 -18 -6 -17 24 -29
38 -15 7 7 5 10 -7 10 -9 0 -17 5 -17 10 0 6 21 10 47 10 25 0 43 3 39 7 -3 4
-27 6 -51 4 -43 -2 -83 17 -68 33 4 3 1 6 -5 6 -7 0 -12 -9 -12 -21z"/>
<path d="M1660 2181 c0 -13 26 -32 33 -24 8 7 -11 33 -24 33 -5 0 -9 -4 -9 -9z"/>
<path d="M2320 2176 c0 -7 7 -19 15 -26 12 -10 16 -9 21 3 3 9 3 21 -1 27 -9
15 -35 12 -35 -4z"/>
<path d="M2995 2181 c-7 -12 12 -24 25 -16 11 7 4 25 -10 25 -5 0 -11 -4 -15
-9z"/>
<path d="M696 2170 c5 -5 21 -12 37 -15 20 -5 27 -3 27 7 0 9 -12 14 -36 15
-20 1 -32 -3 -28 -7z"/>
<path d="M2140 2172 c0 -5 8 -17 19 -26 17 -15 19 -15 25 -1 10 28 7 35 -19
35 -14 0 -25 -4 -25 -8z"/>
<path d="M2914 2169 c-8 -14 14 -29 33 -22 18 7 17 20 -3 27 -21 8 -22 8 -30
-5z"/>
<path d="M3510 2171 c0 -11 112 -91 178 -128 30 -17 42 -20 42 -10 0 14 -53
51 -147 103 -29 16 -53 32 -53 37 0 4 -4 7 -10 7 -5 0 -10 -4 -10 -9z"/>
<path d="M3570 2170 c0 -14 48 -35 58 -26 8 9 -26 36 -45 36 -7 0 -13 -5 -13
-10z"/>
<path d="M3776 2165 c4 -8 9 -15 13 -15 4 0 8 7 8 15 0 8 -6 15 -13 15 -8 0
-11 -6 -8 -15z"/>
<path d="M932 2158 c-7 -7 -12 -17 -12 -23 0 -28 -41 -48 -95 -49 -47 -1 -52
-3 -38 -13 23 -18 78 -16 93 2 7 8 19 15 26 15 8 0 14 5 14 11 0 6 9 24 21 40
20 29 14 40 -9 17z"/>
<path d="M2237 2164 c-13 -13 -7 -24 14 -24 11 0 19 5 17 12 -5 14 -22 21 -31
12z"/>
<path d="M3456 2161 c-4 -5 20 -31 51 -58 32 -26 74 -62 93 -80 85 -76 139
-105 62 -33 -42 40 -54 57 -29 44 6 -3 -1 5 -18 20 -16 14 -36 23 -43 21 -7
-3 -17 7 -22 20 -5 14 -14 25 -19 25 -5 0 -23 11 -39 25 -17 14 -33 21 -36 16z"/>
<path d="M1730 2146 c0 -9 7 -16 16 -16 9 0 14 5 12 12 -6 18 -28 21 -28 4z"/>
<path d="M2844 2149 c-3 -6 -2 -15 2 -19 12 -12 38 5 30 19 -9 14 -23 14 -32
0z"/>
<path d="M3144 2151 c-47 -12 -236 -110 -264 -137 -12 -12 -11 -14 10 -14 13
0 31 -7 41 -16 10 -9 26 -14 36 -12 13 3 8 9 -21 21 -22 10 -36 20 -33 23 11
12 52 -6 86 -36 18 -16 39 -30 45 -30 6 0 -2 11 -19 24 -70 55 -80 65 -73 71
8 9 58 -18 82 -44 20 -22 36 -27 36 -13 0 5 -11 15 -25 22 -14 7 -25 19 -25
27 0 19 13 16 45 -8 22 -18 29 -20 36 -8 5 8 8 19 8 24 0 6 -3 4 -6 -2 -2 -7
-8 -13 -11 -13 -14 0 -65 50 -58 57 3 4 12 1 18 -5 17 -17 33 -15 18 3 -15 18
-7 19 37 3 34 -12 41 -26 22 -45 -12 -12 -4 -33 13 -33 6 0 8 9 5 20 -3 11 -1
20 4 20 17 0 9 27 -15 53 l-24 26 45 7 c25 4 82 4 126 1 98 -7 166 -38 289
-135 95 -76 145 -112 152 -112 3 0 3 7 0 15 -4 8 -11 15 -16 15 -6 0 -42 26
-80 58 -114 94 -181 143 -218 159 -40 17 -218 27 -266 14z"/>
<path d="M3806 2145 l-29 -12 47 -16 c50 -17 63 -5 29 25 -15 13 -23 13 -47 3z"/>
<path d="M3904 2145 c-8 -19 1 -31 25 -38 23 -6 60 17 48 29 -4 5 -12 2 -17
-6 -7 -11 -10 -12 -10 -2 0 7 -4 10 -10 7 -5 -3 -10 1 -10 9 0 20 -19 21 -26
1z"/>
<path d="M1807 2139 c-26 -15 -21 -39 8 -39 18 0 25 5 25 19 0 25 -11 32 -33
20z"/>
<path d="M2433 2130 c-3 -11 -9 -17 -14 -14 -5 3 -9 0 -9 -5 0 -15 67 -14 73
2 4 12 -20 36 -36 37 -5 0 -11 -9 -14 -20z"/>
<path d="M2546 2141 c-3 -5 0 -11 8 -14 15 -6 26 1 26 15 0 11 -27 10 -34 -1z"/>
<path d="M3670 2126 c0 -8 9 -20 19 -26 24 -12 32 -13 29 -1 -2 5 2 8 7 8 6
-1 9 -6 7 -10 -4 -14 28 -19 44 -6 13 11 11 14 -14 25 -55 23 -92 27 -92 10z"/>
<path d="M2725 2121 c-10 -17 2 -28 27 -27 13 1 23 7 23 16 0 18 -40 26 -50
11z"/>
<path d="M2970 2120 c0 -5 7 -10 15 -10 8 0 15 5 15 10 0 6 -7 10 -15 10 -8 0
-15 -4 -15 -10z"/>
<path d="M1487 2113 c-3 -3 -3 -12 0 -20 5 -12 -3 -14 -38 -12 -24 2 -46 -1
-49 -6 -3 -4 19 -9 48 -11 30 -1 51 0 48 3 -3 4 1 14 9 23 14 15 14 18 1 23
-8 3 -16 3 -19 0z"/>
<path d="M1953 2110 c-26 -11 -31 -30 -7 -30 23 0 55 20 49 31 -7 11 -13 11
-42 -1z"/>
<path d="M1192 2101 c2 -7 7 -12 11 -12 12 1 9 15 -3 20 -7 2 -11 -2 -8 -8z"/>
<path d="M1690 2097 c0 -19 16 -31 24 -18 3 5 -1 14 -9 21 -12 10 -15 10 -15
-3z"/>
<path d="M2654 2101 c3 -5 -1 -11 -9 -15 -22 -8 -18 -26 5 -26 15 0 20 7 20
25 0 14 -5 25 -11 25 -5 0 -8 -4 -5 -9z"/>
<path d="M3980 2100 c-11 -7 -11 -11 -1 -24 10 -12 10 -16 2 -16 -7 0 -9 -4
-6 -10 3 -5 13 -10 21 -10 11 0 13 8 9 32 -7 39 -7 39 -25 28z"/>
<path d="M1616 2093 c-3 -3 -3 -10 0 -14 7 -12 34 -11 34 0 0 11 -26 22 -34
14z"/>
<path d="M2197 2094 c-14 -14 -7 -25 13 -22 12 2 21 8 21 13 0 12 -24 18 -34
9z"/>
<path d="M3804 2066 c-10 -22 -9 -26 17 -37 16 -6 29 -14 29 -18 0 -7 80 -31
103 -31 7 0 14 13 15 29 2 26 -2 30 -60 49 -37 12 -64 16 -67 11 -1 -6 -8 -3
-15 5 -9 14 -12 13 -22 -8z m146 -55 c0 -11 -3 -12 -11 -4 -6 6 -18 9 -25 6
-16 -6 -74 15 -74 27 0 16 12 16 60 1 31 -9 50 -21 50 -30z"/>
<path d="M1285 2070 c-7 -12 2 -12 30 0 19 8 19 9 -2 9 -12 1 -25 -3 -28 -9z"/>
<path d="M1875 2071 c-6 -11 9 -23 19 -14 9 9 7 23 -3 23 -6 0 -12 -4 -16 -9z"/>
<path d="M2306 2064 c-9 -23 -2 -28 29 -20 22 6 25 9 15 21 -16 20 -36 19 -44
-1z"/>
<path d="M2528 2052 c-10 -2 -18 -8 -18 -13 0 -13 27 -11 35 2 9 13 4 16 -17
11z"/>
<path d="M1292 2038 c3 -7 13 -14 24 -15 10 -2 13 0 6 3 -6 3 -10 10 -6 15 3
5 -2 9 -11 9 -9 0 -15 -6 -13 -12z"/>
<path d="M1343 2035 c0 -8 6 -15 13 -15 6 0 14 7 18 15 3 10 -1 15 -13 15 -10
0 -18 -7 -18 -15z"/>
<path d="M1420 2040 c14 -4 34 -8 45 -9 16 -1 17 1 5 9 -8 5 -28 9 -45 9 -29
-1 -29 -1 -5 -9z"/>
<path d="M1700 2041 c0 -11 26 -22 34 -14 3 3 3 10 0 14 -7 12 -34 11 -34 0z"/>
<path d="M1790 2042 c0 -14 11 -21 26 -15 21 8 17 23 -6 23 -11 0 -20 -4 -20
-8z"/>
<path d="M1115 2030 c3 -5 13 -10 21 -10 8 0 14 5 14 10 0 6 -9 10 -21 10 -11
0 -17 -4 -14 -10z"/>
<path d="M1607 2033 c-14 -4 -16 -8 -6 -19 9 -11 15 -12 25 -3 15 12 19 30 7
28 -5 -1 -16 -3 -26 -6z"/>
<path d="M2000 2030 c0 -5 7 -10 15 -10 8 0 15 5 15 10 0 6 -7 10 -15 10 -8 0
-15 -4 -15 -10z"/>
<path d="M2154 2029 c-8 -13 25 -24 37 -12 7 7 3 12 -10 16 -12 3 -24 1 -27
-4z"/>
<path d="M2400 2022 c0 -13 38 -23 46 -11 3 5 1 9 -5 9 -5 0 -16 3 -25 6 -9 3
-16 2 -16 -4z"/>
<path d="M3660 2015 c7 -8 20 -15 28 -15 13 0 12 3 -4 15 -25 19 -40 19 -24 0z"/>
<path d="M3995 2020 c-4 -6 -3 -16 3 -22 13 -13 23 4 13 21 -7 10 -10 10 -16
1z"/>
<path d="M1206 2004 c-8 -22 -8 -24 8 -24 21 0 28 16 12 29 -11 9 -15 8 -20
-5z"/>
<path d="M1286 2013 c-12 -12 -6 -23 13 -23 11 0 23 -4 26 -10 3 -5 12 -10 18
-10 7 0 6 4 -3 10 -13 8 -12 10 3 10 9 0 17 5 17 11 0 5 -4 8 -9 5 -5 -4 -20
-2 -34 3 -14 5 -28 7 -31 4z"/>
<path d="M1390 2016 c0 -2 15 -6 34 -8 19 -2 32 0 30 4 -5 8 -64 12 -64 4z"/>
<path d="M3770 2006 c0 -12 28 -25 53 -26 17 0 5 18 -18 28 -33 15 -35 15 -35
-2z"/>
<path d="M1705 1999 c-10 -15 3 -25 16 -12 7 7 7 13 1 17 -6 3 -14 1 -17 -5z"/>
<path d="M2818 1987 c-31 -12 -37 -32 -12 -41 8 -3 13 -10 10 -15 -3 -4 3 -16
13 -25 28 -26 36 6 9 39 -23 30 -19 42 10 26 24 -13 62 -15 62 -3 0 16 -13 22
-26 11 -10 -9 -15 -7 -20 5 -7 18 -8 18 -46 3z"/>
<path d="M1390 1980 c0 -13 11 -13 30 0 12 8 11 10 -7 10 -13 0 -23 -4 -23
-10z"/>
<path d="M1289 1964 c18 -8 41 -13 50 -11 11 3 9 5 -6 6 -12 0 -25 6 -28 11
-3 6 -16 10 -28 9 -18 0 -16 -3 12 -15z"/>
<path d="M3727 1974 c-13 -13 7 -34 32 -34 14 0 32 -4 40 -9 19 -12 3 -33 -20
-26 -10 4 -19 4 -19 0 0 -9 159 -81 197 -89 26 -6 34 -4 43 15 10 17 9 20 -2
17 -7 -3 -26 1 -42 9 -23 12 -30 12 -36 2 -7 -10 -14 -10 -39 0 -44 19 -59 40
-24 33 l28 -5 -25 20 c-35 28 -108 73 -118 73 -5 0 -11 -3 -15 -6z"/>
<path d="M3850 1970 c0 -5 12 -10 28 -9 24 0 25 1 7 9 -27 12 -35 12 -35 0z"/>
<path d="M3997 1969 c-9 -5 -22 -7 -27 -4 -6 3 -10 2 -10 -3 0 -5 9 -12 20
-15 11 -3 20 -13 20 -22 0 -11 -5 -15 -15 -11 -9 3 -15 0 -15 -8 0 -8 7 -17
16 -20 8 -3 12 -10 9 -16 -3 -5 -1 -10 4 -10 6 0 12 12 13 28 1 26 4 92 3 92
0 0 -8 -5 -18 -11z"/>
<path d="M2705 1949 c-32 -5 -82 -15 -110 -23 -83 -24 -250 -56 -295 -56 -22
0 -39 -4 -36 -9 11 -17 151 0 297 34 80 19 157 35 170 35 14 0 54 -24 99 -60
79 -63 172 -124 205 -134 33 -10 47 8 55 75 4 35 6 66 5 67 -2 2 -13 -6 -24
-17 -16 -16 -17 -21 -6 -21 9 0 15 -9 15 -24 0 -19 -4 -23 -20 -19 -11 3 -20
0 -20 -6 0 -6 7 -11 15 -11 17 0 20 -16 5 -25 -11 -7 -61 18 -80 40 -7 9 -20
13 -31 10 -12 -4 -21 -1 -25 9 -3 9 -12 16 -19 16 -6 0 -23 10 -37 23 -13 12
-41 37 -62 55 -20 18 -34 37 -31 42 3 6 3 9 -2 9 -4 -1 -35 -5 -68 -10z"/>
<path d="M2990 1931 c19 -16 39 -27 43 -24 5 3 0 10 -11 17 -59 34 -64 35 -32
7z"/>
<path d="M3102 1948 c-15 -15 -16 -38 -2 -38 12 0 23 25 18 40 -2 7 -7 7 -16
-2z"/>
<path d="M2880 1941 c-17 -5 -21 -9 -12 -15 6 -4 16 -5 21 -2 4 3 25 -3 46
-14 43 -22 49 -21 39 4 -4 10 -13 15 -22 11 -8 -3 -22 1 -31 8 -10 9 -26 11
-41 8z"/>
<path d="M2885 1886 c16 -24 43 -41 52 -32 9 8 -8 26 -38 42 l-30 15 16 -25z"/>
<path d="M2207 1857 c41 -51 58 -67 70 -67 6 0 16 -6 20 -12 4 -7 25 -22 47
-33 37 -19 55 -40 43 -51 -3 -3 -18 2 -33 12 -21 15 -26 15 -22 4 2 -8 17 -21
31 -28 15 -7 27 -21 27 -32 0 -19 -1 -19 -35 1 -19 12 -35 25 -35 30 0 5 -5 9
-12 9 -6 0 -22 10 -35 21 -19 19 -25 20 -39 8 -14 -11 -18 -11 -21 -1 -3 7
-19 29 -36 51 -18 21 -42 51 -54 67 -37 49 -25 12 16 -53 22 -33 47 -63 56
-67 10 -3 15 -12 11 -21 -3 -10 1 -15 12 -15 10 0 23 -5 30 -12 18 -18 14 3
-5 24 -15 17 -15 18 1 18 10 0 39 -18 65 -40 26 -22 53 -40 59 -40 7 0 18 -11
24 -25 9 -21 9 -29 -5 -42 -14 -14 -21 -15 -43 -4 -36 16 -42 7 -9 -15 22 -14
30 -15 50 -4 27 14 35 37 24 65 -4 11 -8 57 -8 102 -1 85 -12 133 -32 133 -8
0 -7 -5 2 -17 13 -15 11 -16 -13 -9 -37 9 -35 0 2 -19 18 -9 30 -23 30 -35 0
-19 -1 -18 -42 3 -33 17 -43 28 -43 47 0 17 -6 26 -20 28 -19 3 -19 2 -2 -11
9 -8 17 -17 17 -21 0 -14 -20 -4 -49 26 -28 29 -30 33 -14 40 13 5 8 7 -15 7
-33 1 -33 1 -15 -22z"/>
<path d="M2980 1870 c0 -11 42 -31 49 -24 5 5 -30 33 -41 34 -5 0 -8 -5 -8
-10z"/>
<path d="M2130 1862 c0 -4 22 -33 50 -64 36 -40 55 -55 69 -51 12 3 24 -3 35
-18 8 -13 19 -19 23 -15 4 4 -13 26 -38 49 -24 23 -55 55 -67 71 -12 16 -25
26 -29 23 -3 -4 8 -21 26 -39 17 -17 31 -35 31 -40 0 -19 -18 -5 -54 42 -38
50 -46 57 -46 42z"/>
<path d="M2600 1732 l-23 -18 139 -202 c77 -110 143 -201 147 -201 5 -1 19 7
32 17 l23 19 -139 199 c-77 109 -144 200 -148 202 -4 1 -18 -6 -31 -16z"/>
<path d="M2262 1610 c7 -11 16 -20 21 -20 4 0 5 -5 1 -12 -5 -7 -3 -8 5 -3 9
5 7 13 -10 31 -27 29 -33 31 -17 4z"/>
<path d="M2319 1606 c26 -28 31 -31 31 -17 0 5 -12 17 -27 26 l-28 18 24 -27z"/>
<path d="M2216 1556 c6 -16 45 -34 62 -29 20 7 14 25 -7 18 -10 -3 -24 1 -31
10 -16 19 -31 20 -24 1z"/>
<path d="M3137 1233 c-4 -3 -7 -44 -7 -90 0 -67 3 -83 15 -83 11 0 15 12 15
45 0 38 3 45 20 45 17 0 20 -7 20 -45 0 -33 4 -45 15 -45 11 0 15 12 15 49 0
58 -20 82 -51 63 -18 -11 -19 -9 -19 28 0 38 -8 49 -23 33z"/>
<path d="M2974 1219 c-10 -17 13 -36 27 -22 12 12 4 33 -11 33 -5 0 -12 -5
-16 -11z"/>
<path d="M2850 1140 c0 -64 3 -80 15 -80 10 0 15 11 15 35 0 33 2 35 35 35 26
0 35 4 35 16 0 13 -7 15 -35 11 -32 -5 -35 -4 -35 20 0 24 3 25 34 20 25 -4
36 -1 40 9 4 11 -6 14 -49 14 l-55 0 0 -80z"/>
<path d="M3040 1165 c-17 -21 -8 -48 18 -55 30 -7 24 -26 -7 -22 -15 2 -22 -1
-19 -10 3 -7 15 -14 27 -16 49 -7 72 52 26 64 -31 8 -27 30 3 26 25 -4 30 13
6 22 -25 10 -41 7 -54 -9z"/>
<path d="M2975 1118 c0 -32 5 -53 13 -55 9 -3 12 11 12 51 0 39 -4 56 -13 56
-9 0 -13 -16 -12 -52z"/>
</g>
</svg>
